<?xml version="1.0" encoding="UTF-8" standalone="no"?>
<!DOCTYPE svg PUBLIC "-//W3C//DTD SVG 1.1//EN"
 "http://www.w3.org/Graphics/SVG/1.1/DTD/svg11.dtd">
<!-- Generated by graphviz version 2.43.0 (0)
 -->
<!-- Title: G Pages: 1 -->
<svg width="922pt" height="778pt"
 viewBox="0.00 0.00 922.00 778.00" xmlns="http://www.w3.org/2000/svg" xmlns:xlink="http://www.w3.org/1999/xlink">
<g id="graph0" class="graph" transform="scale(1 1) rotate(0) translate(4 774)">
<title>G</title>
<polygon fill="white" stroke="transparent" points="-4,4 -4,-774 918,-774 918,4 -4,4"/>
<!-- run_all -->
<g id="node1" class="node">
<title>run_all</title>
<polygon fill="none" stroke="black" points="149,-770 0,-770 0,-734 149,-734 149,-770"/>
<text text-anchor="middle" x="74.5" y="-748.3" font-family="monospace" font-size="14.00">Qualib.run_all()</text>
</g>
<!-- log_init -->
<g id="node2" class="node">
<title>log_init</title>
<polygon fill="none" stroke="black" points="371,-770 222,-770 222,-734 371,-734 371,-770"/>
<text text-anchor="middle" x="296.5" y="-748.3" font-family="monospace" font-size="14.00">Log.initialize()</text>
</g>
<!-- run_all&#45;&gt;log_init -->
<g id="edge1" class="edge">
<title>run_all&#45;&gt;log_init</title>
<path fill="none" stroke="black" d="M149.06,-752C169.05,-752 190.84,-752 211.36,-752"/>
<polygon fill="black" stroke="black" points="211.63,-755.5 221.63,-752 211.63,-748.5 211.63,-755.5"/>
</g>
<!-- report_init -->
<g id="node3" class="node">
<title>report_init</title>
<polygon fill="none" stroke="black" points="375,-716 218,-716 218,-680 375,-680 375,-716"/>
<text text-anchor="middle" x="296.5" y="-694.3" font-family="monospace" font-size="14.00">Report.__init__()</text>
</g>
<!-- log_init&#45;&gt;report_init -->
<g id="edge2" class="edge">
<title>log_init&#45;&gt;report_init</title>
<path fill="none" stroke="black" d="M296.5,-733.79C296.5,-731.31 296.5,-728.83 296.5,-726.34"/>
<polygon fill="black" stroke="black" points="300,-726.14 296.5,-716.14 293,-726.14 300,-726.14"/>
</g>
<!-- load_calib_scheme -->
<g id="node4" class="node">
<title>load_calib_scheme</title>
<polygon fill="none" stroke="black" points="408,-662 185,-662 185,-626 408,-626 408,-662"/>
<text text-anchor="middle" x="296.5" y="-640.3" font-family="monospace" font-size="14.00">load_calibration_scheme()</text>
</g>
<!-- report_init&#45;&gt;load_calib_scheme -->
<g id="edge3" class="edge">
<title>report_init&#45;&gt;load_calib_scheme</title>
<path fill="none" stroke="black" d="M296.5,-679.79C296.5,-677.31 296.5,-674.83 296.5,-672.34"/>
<polygon fill="black" stroke="black" points="300,-672.14 296.5,-662.14 293,-672.14 300,-672.14"/>
</g>
<!-- load_assumptions -->
<g id="node5" class="node">
<title>load_assumptions</title>
<polygon fill="none" stroke="black" points="379,-608 214,-608 214,-572 379,-572 379,-608"/>
<text text-anchor="middle" x="296.5" y="-586.3" font-family="monospace" font-size="14.00">load_assumptions()</text>
</g>
<!-- load_calib_scheme&#45;&gt;load_assumptions -->
<g id="edge4" class="edge">
<title>load_calib_scheme&#45;&gt;load_assumptions</title>
<path fill="none" stroke="black" d="M296.5,-625.79C296.5,-623.31 296.5,-620.83 296.5,-618.34"/>
<polygon fill="black" stroke="black" points="300,-618.14 296.5,-608.14 293,-618.14 300,-618.14"/>
</g>
<!-- run -->
<g id="node6" class="node">
<title>run</title>
<polygon fill="none" stroke="black" points="354.5,-554 238.5,-554 238.5,-518 354.5,-518 354.5,-554"/>
<text text-anchor="middle" x="296.5" y="-532.3" font-family="monospace" font-size="14.00">Qualib.run()</text>
</g>
<!-- load_assumptions&#45;&gt;run -->
<g id="edge5" class="edge">
<title>load_assumptions&#45;&gt;run</title>
<path fill="none" stroke="black" d="M296.5,-571.79C296.5,-569.31 296.5,-566.83 296.5,-564.34"/>
<polygon fill="black" stroke="black" points="300,-564.14 296.5,-554.14 293,-564.14 300,-564.14"/>
</g>
<!-- load_utils -->
<g id="node7" class="node">
<title>load_utils</title>
<polygon fill="none" stroke="black" points="621.5,-554 505.5,-554 505.5,-518 621.5,-518 621.5,-554"/>
<text text-anchor="middle" x="563.5" y="-532.3" font-family="monospace" font-size="14.00">load_utils()</text>
</g>
<!-- run&#45;&gt;load_utils -->
<g id="edge6" class="edge">
<title>run&#45;&gt;load_utils</title>
<path fill="none" stroke="black" d="M354.67,-536C395.95,-536 451.82,-536 495.24,-536"/>
<polygon fill="black" stroke="black" points="495.43,-539.5 505.43,-536 495.43,-532.5 495.43,-539.5"/>
</g>
<!-- load_exopy_template -->
<g id="node8" class="node">
<title>load_exopy_template</title>
<polygon fill="none" stroke="black" points="658.5,-500 468.5,-500 468.5,-464 658.5,-464 658.5,-500"/>
<text text-anchor="middle" x="563.5" y="-478.3" font-family="monospace" font-size="14.00">load_exopy_template()</text>
</g>
<!-- load_utils&#45;&gt;load_exopy_template -->
<g id="edge7" class="edge">
<title>load_utils&#45;&gt;load_exopy_template</title>
<path fill="none" stroke="black" d="M563.5,-517.79C563.5,-515.31 563.5,-512.83 563.5,-510.34"/>
<polygon fill="black" stroke="black" points="567,-510.14 563.5,-500.14 560,-510.14 567,-510.14"/>
</g>
<!-- load_ipynb_template -->
<g id="node9" class="node">
<title>load_ipynb_template</title>
<polygon fill="none" stroke="black" points="658.5,-446 468.5,-446 468.5,-410 658.5,-410 658.5,-446"/>
<text text-anchor="middle" x="563.5" y="-424.3" font-family="monospace" font-size="14.00">load_ipynb_template()</text>
</g>
<!-- load_exopy_template&#45;&gt;load_ipynb_template -->
<g id="edge8" class="edge">
<title>load_exopy_template&#45;&gt;load_ipynb_template</title>
<path fill="none" stroke="black" d="M563.5,-463.79C563.5,-461.31 563.5,-458.83 563.5,-456.34"/>
<polygon fill="black" stroke="black" points="567,-456.14 563.5,-446.14 560,-456.14 567,-456.14"/>
</g>
<!-- calibration -->
<g id="node10" class="node">
<title>calibration</title>
<polygon fill="none" stroke="black" points="662.5,-388 464.5,-388 464.5,-352 662.5,-352 662.5,-388"/>
<polygon fill="none" stroke="black" points="666.5,-392 460.5,-392 460.5,-348 666.5,-348 666.5,-392"/>
<text text-anchor="middle" x="563.5" y="-366.3" font-family="monospace" font-size="14.00">Calibration.__init__()</text>
</g>
<!-- load_ipynb_template&#45;&gt;calibration -->
<g id="edge9" class="edge">
<title>load_ipynb_template&#45;&gt;calibration</title>
<path fill="none" stroke="black" d="M563.5,-409.82C563.5,-407.34 563.5,-404.87 563.5,-402.39"/>
<polygon fill="black" stroke="black" points="567,-402.2 563.5,-392.2 560,-402.2 567,-402.2"/>
</g>
<!-- pre_process -->
<g id="node11" class="node">
<title>pre_process</title>
<polygon fill="none" stroke="black" points="675,-326 452,-326 452,-290 675,-290 675,-326"/>
<polygon fill="none" stroke="black" points="679,-330 448,-330 448,-286 679,-286 679,-330"/>
<text text-anchor="middle" x="563.5" y="-304.3" font-family="monospace" font-size="14.00">Calibration.pre_process()</text>
</g>
<!-- calibration&#45;&gt;pre_process -->
<g id="edge11" class="edge">
<title>calibration&#45;&gt;pre_process</title>
<path fill="none" stroke="black" d="M563.5,-347.97C563.5,-345.48 563.5,-342.99 563.5,-340.51"/>
<polygon fill="black" stroke="black" points="567,-340.28 563.5,-330.28 560,-340.28 567,-340.28"/>
</g>
<!-- handle_substitutions -->
<g id="node17" class="node">
<title>handle_substitutions</title>
<text text-anchor="middle" x="816.5" y="-366.3" font-family="sans-serif" font-size="14.00">Handle substitutions</text>
</g>
<!-- calibration&#45;&gt;handle_substitutions -->
<!-- report_add_calibration -->
<g id="node12" class="node">
<title>report_add_calibration</title>
<polygon fill="none" stroke="black" points="671,-268 456,-268 456,-232 671,-232 671,-268"/>
<text text-anchor="middle" x="563.5" y="-246.3" font-family="monospace" font-size="14.00">Report.add_calibration()</text>
</g>
<!-- pre_process&#45;&gt;report_add_calibration -->
<g id="edge13" class="edge">
<title>pre_process&#45;&gt;report_add_calibration</title>
<path fill="none" stroke="black" d="M563.5,-285.88C563.5,-283.38 563.5,-280.89 563.5,-278.39"/>
<polygon fill="black" stroke="black" points="567,-278.12 563.5,-268.12 560,-278.13 567,-278.12"/>
</g>
<!-- handle_pre_placeholders -->
<g id="node18" class="node">
<title>handle_pre_placeholders</title>
<text text-anchor="middle" x="816.5" y="-304.3" font-family="sans-serif" font-size="14.00">Handle pre&#45;placeholders</text>
</g>
<!-- pre_process&#45;&gt;handle_pre_placeholders -->
<!-- subprocess -->
<g id="node13" class="node">
<title>subprocess</title>
<polygon fill="none" stroke="black" points="638,-214 489,-214 489,-178 638,-178 638,-214"/>
<text text-anchor="middle" x="563.5" y="-192.3" font-family="monospace" font-size="14.00">subprocess.run()</text>
</g>
<!-- report_add_calibration&#45;&gt;subprocess -->
<g id="edge14" class="edge">
<title>report_add_calibration&#45;&gt;subprocess</title>
<path fill="none" stroke="black" d="M563.5,-231.79C563.5,-229.31 563.5,-226.83 563.5,-224.34"/>
<polygon fill="black" stroke="black" points="567,-224.14 563.5,-214.14 560,-224.14 567,-224.14"/>
</g>
<!-- process -->
<g id="node14" class="node">
<title>process</title>
<polygon fill="none" stroke="black" points="658.5,-156 468.5,-156 468.5,-120 658.5,-120 658.5,-156"/>
<polygon fill="none" stroke="black" points="662.5,-160 464.5,-160 464.5,-116 662.5,-116 662.5,-160"/>
<text text-anchor="middle" x="563.5" y="-134.3" font-family="monospace" font-size="14.00">Calibration.process()</text>
</g>
<!-- subprocess&#45;&gt;process -->
<g id="edge15" class="edge">
<title>subprocess&#45;&gt;process</title>
<path fill="none" stroke="black" d="M563.5,-177.82C563.5,-175.34 563.5,-172.87 563.5,-170.39"/>
<polygon fill="black" stroke="black" points="567,-170.2 563.5,-160.2 560,-170.2 567,-170.2"/>
</g>
<!-- post_process -->
<g id="node15" class="node">
<title>post_process</title>
<polygon fill="none" stroke="black" points="679,-94 448,-94 448,-58 679,-58 679,-94"/>
<polygon fill="none" stroke="black" points="683,-98 444,-98 444,-54 683,-54 683,-98"/>
<text text-anchor="middle" x="563.5" y="-72.3" font-family="monospace" font-size="14.00">Calibration.post_process()</text>
</g>
<!-- process&#45;&gt;post_process -->
<g id="edge17" class="edge">
<title>process&#45;&gt;post_process</title>
<path fill="none" stroke="black" d="M563.5,-115.97C563.5,-113.48 563.5,-110.99 563.5,-108.51"/>
<polygon fill="black" stroke="black" points="567,-108.28 563.5,-98.28 560,-108.28 567,-108.28"/>
</g>
<!-- handle_results -->
<g id="node19" class="node">
<title>handle_results</title>
<text text-anchor="middle" x="816.5" y="-141.8" font-family="sans-serif" font-size="14.00">Handle interfaces</text>
<text text-anchor="middle" x="816.5" y="-126.8" font-family="sans-serif" font-size="14.00">Update assumptions</text>
</g>
<!-- process&#45;&gt;handle_results -->
<!-- report_add_results -->
<g id="node16" class="node">
<title>report_add_results</title>
<polygon fill="none" stroke="black" points="654.5,-36 472.5,-36 472.5,0 654.5,0 654.5,-36"/>
<text text-anchor="middle" x="563.5" y="-14.3" font-family="monospace" font-size="14.00">Report.add_results()</text>
</g>
<!-- post_process&#45;&gt;report_add_results -->
<g id="edge19" class="edge">
<title>post_process&#45;&gt;report_add_results</title>
<path fill="none" stroke="black" d="M563.5,-53.88C563.5,-51.38 563.5,-48.89 563.5,-46.39"/>
<polygon fill="black" stroke="black" points="567,-46.12 563.5,-36.12 560,-46.13 567,-46.12"/>
</g>
<!-- handle_post_placeholders -->
<g id="node20" class="node">
<title>handle_post_placeholders</title>
<text text-anchor="middle" x="816.5" y="-72.3" font-family="sans-serif" font-size="14.00">Handle post&#45;placeholders</text>
</g>
<!-- post_process&#45;&gt;handle_post_placeholders -->
<!-- report_add_results&#45;&gt;run -->
<g id="edge21" class="edge">
<title>report_add_results:w&#45;&gt;run:s</title>
<path fill="none" stroke="black" d="M471.5,-18C357.2,-18 299.69,-378.91 296.63,-506.78"/>
<polygon fill="black" stroke="black" points="293.13,-506.96 296.5,-517 300.13,-507.05 293.13,-506.96"/>
</g>
<!-- report_add_results_desc -->
<g id="node21" class="node">
<title>report_add_results_desc</title>
<text text-anchor="middle" x="816.5" y="-14.3" font-family="sans-serif" font-size="14.00">Update assumptions cells</text>
</g>
<!-- report_add_results&#45;&gt;report_add_results_desc -->
</g>
</svg>
