<?xml version="1.0" encoding="UTF-8" standalone="no"?>
<!DOCTYPE svg PUBLIC "-//W3C//DTD SVG 1.1//EN"
 "http://www.w3.org/Graphics/SVG/1.1/DTD/svg11.dtd">
<!-- Generated by graphviz version 2.43.0 (0)
 -->
<!-- Title: G Pages: 1 -->
<svg width="988pt" height="832pt"
 viewBox="0.00 0.00 988.00 832.00" xmlns="http://www.w3.org/2000/svg" xmlns:xlink="http://www.w3.org/1999/xlink">
<g id="graph0" class="graph" transform="scale(1 1) rotate(0) translate(4 828)">
<title>G</title>
<polygon fill="white" stroke="transparent" points="-4,4 -4,-828 984,-828 984,4 -4,4"/>
<!-- run_all -->
<g id="node1" class="node">
<title>run_all</title>
<polygon fill="none" stroke="black" points="149,-824 0,-824 0,-788 149,-788 149,-824"/>
<text text-anchor="middle" x="74.5" y="-802.3" font-family="monospace" font-size="14.00">Qualib.run_all()</text>
</g>
<!-- log_init -->
<g id="node2" class="node">
<title>log_init</title>
<polygon fill="none" stroke="black" points="371,-824 222,-824 222,-788 371,-788 371,-824"/>
<text text-anchor="middle" x="296.5" y="-802.3" font-family="monospace" font-size="14.00">Log.initialize()</text>
</g>
<!-- run_all&#45;&gt;log_init -->
<g id="edge1" class="edge">
<title>run_all&#45;&gt;log_init</title>
<path fill="none" stroke="black" d="M149.06,-806C169.05,-806 190.84,-806 211.36,-806"/>
<polygon fill="black" stroke="black" points="211.63,-809.5 221.63,-806 211.63,-802.5 211.63,-809.5"/>
</g>
<!-- report_init -->
<g id="node3" class="node">
<title>report_init</title>
<polygon fill="none" stroke="black" points="375,-770 218,-770 218,-734 375,-734 375,-770"/>
<text text-anchor="middle" x="296.5" y="-748.3" font-family="monospace" font-size="14.00">Report.__init__()</text>
</g>
<!-- log_init&#45;&gt;report_init -->
<g id="edge2" class="edge">
<title>log_init&#45;&gt;report_init</title>
<path fill="none" stroke="black" d="M296.5,-787.79C296.5,-785.31 296.5,-782.83 296.5,-780.34"/>
<polygon fill="black" stroke="black" points="300,-780.14 296.5,-770.14 293,-780.14 300,-780.14"/>
</g>
<!-- load_calib_scheme -->
<g id="node4" class="node">
<title>load_calib_scheme</title>
<polygon fill="none" stroke="black" points="408,-716 185,-716 185,-680 408,-680 408,-716"/>
<text text-anchor="middle" x="296.5" y="-694.3" font-family="monospace" font-size="14.00">load_calibration_scheme()</text>
</g>
<!-- report_init&#45;&gt;load_calib_scheme -->
<g id="edge3" class="edge">
<title>report_init&#45;&gt;load_calib_scheme</title>
<path fill="none" stroke="black" d="M296.5,-733.79C296.5,-731.31 296.5,-728.83 296.5,-726.34"/>
<polygon fill="black" stroke="black" points="300,-726.14 296.5,-716.14 293,-726.14 300,-726.14"/>
</g>
<!-- load_assumptions -->
<g id="node5" class="node">
<title>load_assumptions</title>
<polygon fill="none" stroke="black" points="379,-662 214,-662 214,-626 379,-626 379,-662"/>
<text text-anchor="middle" x="296.5" y="-640.3" font-family="monospace" font-size="14.00">load_assumptions()</text>
</g>
<!-- load_calib_scheme&#45;&gt;load_assumptions -->
<g id="edge4" class="edge">
<title>load_calib_scheme&#45;&gt;load_assumptions</title>
<path fill="none" stroke="black" d="M296.5,-679.79C296.5,-677.31 296.5,-674.83 296.5,-672.34"/>
<polygon fill="black" stroke="black" points="300,-672.14 296.5,-662.14 293,-672.14 300,-672.14"/>
</g>
<!-- run -->
<g id="node6" class="node">
<title>run</title>
<polygon fill="none" stroke="black" points="354.5,-608 238.5,-608 238.5,-572 354.5,-572 354.5,-608"/>
<text text-anchor="middle" x="296.5" y="-586.3" font-family="monospace" font-size="14.00">Qualib.run()</text>
</g>
<!-- load_assumptions&#45;&gt;run -->
<g id="edge5" class="edge">
<title>load_assumptions&#45;&gt;run</title>
<path fill="none" stroke="black" d="M296.5,-625.79C296.5,-623.31 296.5,-620.83 296.5,-618.34"/>
<polygon fill="black" stroke="black" points="300,-618.14 296.5,-608.14 293,-618.14 300,-618.14"/>
</g>
<!-- load_utils -->
<g id="node7" class="node">
<title>load_utils</title>
<polygon fill="none" stroke="black" points="654.5,-608 538.5,-608 538.5,-572 654.5,-572 654.5,-608"/>
<text text-anchor="middle" x="596.5" y="-586.3" font-family="monospace" font-size="14.00">load_utils()</text>
</g>
<!-- run&#45;&gt;load_utils -->
<g id="edge6" class="edge">
<title>run&#45;&gt;load_utils</title>
<path fill="none" stroke="black" d="M354.6,-590C404.12,-590 475.84,-590 528.15,-590"/>
<polygon fill="black" stroke="black" points="528.34,-593.5 538.33,-590 528.33,-586.5 528.34,-593.5"/>
</g>
<!-- load_exopy_template -->
<g id="node8" class="node">
<title>load_exopy_template</title>
<polygon fill="none" stroke="black" points="691.5,-554 501.5,-554 501.5,-518 691.5,-518 691.5,-554"/>
<text text-anchor="middle" x="596.5" y="-532.3" font-family="monospace" font-size="14.00">load_exopy_template()</text>
</g>
<!-- load_utils&#45;&gt;load_exopy_template -->
<g id="edge7" class="edge">
<title>load_utils&#45;&gt;load_exopy_template</title>
<path fill="none" stroke="black" d="M596.5,-571.79C596.5,-569.31 596.5,-566.83 596.5,-564.34"/>
<polygon fill="black" stroke="black" points="600,-564.14 596.5,-554.14 593,-564.14 600,-564.14"/>
</g>
<!-- load_ipynb_template -->
<g id="node9" class="node">
<title>load_ipynb_template</title>
<polygon fill="none" stroke="black" points="691.5,-500 501.5,-500 501.5,-464 691.5,-464 691.5,-500"/>
<text text-anchor="middle" x="596.5" y="-478.3" font-family="monospace" font-size="14.00">load_ipynb_template()</text>
</g>
<!-- load_exopy_template&#45;&gt;load_ipynb_template -->
<g id="edge8" class="edge">
<title>load_exopy_template&#45;&gt;load_ipynb_template</title>
<path fill="none" stroke="black" d="M596.5,-517.79C596.5,-515.31 596.5,-512.83 596.5,-510.34"/>
<polygon fill="black" stroke="black" points="600,-510.14 596.5,-500.14 593,-510.14 600,-510.14"/>
</g>
<!-- calib_init -->
<g id="node10" class="node">
<title>calib_init</title>
<polygon fill="none" stroke="black" points="695.5,-446 497.5,-446 497.5,-410 695.5,-410 695.5,-446"/>
<text text-anchor="middle" x="596.5" y="-424.3" font-family="monospace" font-size="14.00">Calibration.__init__()</text>
</g>
<!-- load_ipynb_template&#45;&gt;calib_init -->
<g id="edge9" class="edge">
<title>load_ipynb_template&#45;&gt;calib_init</title>
<path fill="none" stroke="black" d="M596.5,-463.79C596.5,-461.31 596.5,-458.83 596.5,-456.34"/>
<polygon fill="black" stroke="black" points="600,-456.14 596.5,-446.14 593,-456.14 600,-456.14"/>
</g>
<!-- calib_handle_substitutions -->
<g id="node11" class="node">
<title>calib_handle_substitutions</title>
<polygon fill="none" stroke="black" points="745,-388 448,-388 448,-352 745,-352 745,-388"/>
<polygon fill="none" stroke="black" points="749,-392 444,-392 444,-348 749,-348 749,-392"/>
<text text-anchor="middle" x="596.5" y="-366.3" font-family="monospace" font-size="14.00">Calibration.handle_substitutions()</text>
</g>
<!-- calib_init&#45;&gt;calib_handle_substitutions -->
<g id="edge10" class="edge">
<title>calib_init&#45;&gt;calib_handle_substitutions</title>
<path fill="none" stroke="black" d="M596.5,-409.82C596.5,-407.34 596.5,-404.87 596.5,-402.39"/>
<polygon fill="black" stroke="black" points="600,-402.2 596.5,-392.2 593,-402.2 600,-402.2"/>
</g>
<!-- pre_process -->
<g id="node12" class="node">
<title>pre_process</title>
<polygon fill="none" stroke="black" points="708,-326 485,-326 485,-290 708,-290 708,-326"/>
<polygon fill="none" stroke="black" points="712,-330 481,-330 481,-286 712,-286 712,-330"/>
<text text-anchor="middle" x="596.5" y="-304.3" font-family="monospace" font-size="14.00">Calibration.pre_process()</text>
</g>
<!-- calib_handle_substitutions&#45;&gt;pre_process -->
<g id="edge12" class="edge">
<title>calib_handle_substitutions&#45;&gt;pre_process</title>
<path fill="none" stroke="black" d="M596.5,-347.97C596.5,-345.48 596.5,-342.99 596.5,-340.51"/>
<polygon fill="black" stroke="black" points="600,-340.28 596.5,-330.28 593,-340.28 600,-340.28"/>
</g>
<!-- handle_substitutions -->
<g id="node18" class="node">
<title>handle_substitutions</title>
<text text-anchor="middle" x="882.5" y="-366.3" font-family="sans-serif" font-size="14.00">Handle substitutions</text>
</g>
<!-- calib_handle_substitutions&#45;&gt;handle_substitutions -->
<!-- report_add_calibration -->
<g id="node13" class="node">
<title>report_add_calibration</title>
<polygon fill="none" stroke="black" points="704,-268 489,-268 489,-232 704,-232 704,-268"/>
<text text-anchor="middle" x="596.5" y="-246.3" font-family="monospace" font-size="14.00">Report.add_calibration()</text>
</g>
<!-- pre_process&#45;&gt;report_add_calibration -->
<g id="edge14" class="edge">
<title>pre_process&#45;&gt;report_add_calibration</title>
<path fill="none" stroke="black" d="M596.5,-285.88C596.5,-283.38 596.5,-280.89 596.5,-278.39"/>
<polygon fill="black" stroke="black" points="600,-278.12 596.5,-268.12 593,-278.13 600,-278.12"/>
</g>
<!-- handle_pre_placeholders -->
<g id="node19" class="node">
<title>handle_pre_placeholders</title>
<text text-anchor="middle" x="882.5" y="-304.3" font-family="sans-serif" font-size="14.00">Handle pre&#45;placeholders</text>
</g>
<!-- pre_process&#45;&gt;handle_pre_placeholders -->
<!-- subprocess -->
<g id="node14" class="node">
<title>subprocess</title>
<polygon fill="none" stroke="black" points="671,-214 522,-214 522,-178 671,-178 671,-214"/>
<text text-anchor="middle" x="596.5" y="-192.3" font-family="monospace" font-size="14.00">subprocess.run()</text>
</g>
<!-- report_add_calibration&#45;&gt;subprocess -->
<g id="edge15" class="edge">
<title>report_add_calibration&#45;&gt;subprocess</title>
<path fill="none" stroke="black" d="M596.5,-231.79C596.5,-229.31 596.5,-226.83 596.5,-224.34"/>
<polygon fill="black" stroke="black" points="600,-224.14 596.5,-214.14 593,-224.14 600,-224.14"/>
</g>
<!-- process -->
<g id="node15" class="node">
<title>process</title>
<polygon fill="none" stroke="black" points="691.5,-156 501.5,-156 501.5,-120 691.5,-120 691.5,-156"/>
<polygon fill="none" stroke="black" points="695.5,-160 497.5,-160 497.5,-116 695.5,-116 695.5,-160"/>
<text text-anchor="middle" x="596.5" y="-134.3" font-family="monospace" font-size="14.00">Calibration.process()</text>
</g>
<!-- subprocess&#45;&gt;process -->
<g id="edge16" class="edge">
<title>subprocess&#45;&gt;process</title>
<path fill="none" stroke="black" d="M596.5,-177.82C596.5,-175.34 596.5,-172.87 596.5,-170.39"/>
<polygon fill="black" stroke="black" points="600,-170.2 596.5,-160.2 593,-170.2 600,-170.2"/>
</g>
<!-- post_process -->
<g id="node16" class="node">
<title>post_process</title>
<polygon fill="none" stroke="black" points="712,-94 481,-94 481,-58 712,-58 712,-94"/>
<polygon fill="none" stroke="black" points="716,-98 477,-98 477,-54 716,-54 716,-98"/>
<text text-anchor="middle" x="596.5" y="-72.3" font-family="monospace" font-size="14.00">Calibration.post_process()</text>
</g>
<!-- process&#45;&gt;post_process -->
<g id="edge18" class="edge">
<title>process&#45;&gt;post_process</title>
<path fill="none" stroke="black" d="M596.5,-115.97C596.5,-113.48 596.5,-110.99 596.5,-108.51"/>
<polygon fill="black" stroke="black" points="600,-108.28 596.5,-98.28 593,-108.28 600,-108.28"/>
</g>
<!-- handle_results -->
<g id="node20" class="node">
<title>handle_results</title>
<text text-anchor="middle" x="882.5" y="-141.8" font-family="sans-serif" font-size="14.00">Handle interfaces</text>
<text text-anchor="middle" x="882.5" y="-126.8" font-family="sans-serif" font-size="14.00">Update assumptions</text>
</g>
<!-- process&#45;&gt;handle_results -->
<!-- report_add_results -->
<g id="node17" class="node">
<title>report_add_results</title>
<polygon fill="none" stroke="black" points="687.5,-36 505.5,-36 505.5,0 687.5,0 687.5,-36"/>
<text text-anchor="middle" x="596.5" y="-14.3" font-family="monospace" font-size="14.00">Report.add_results()</text>
</g>
<!-- post_process&#45;&gt;report_add_results -->
<g id="edge20" class="edge">
<title>post_process&#45;&gt;report_add_results</title>
<path fill="none" stroke="black" d="M596.5,-53.88C596.5,-51.38 596.5,-48.89 596.5,-46.39"/>
<polygon fill="black" stroke="black" points="600,-46.12 596.5,-36.12 593,-46.13 600,-46.12"/>
</g>
<!-- handle_post_placeholders -->
<g id="node21" class="node">
<title>handle_post_placeholders</title>
<text text-anchor="middle" x="882.5" y="-72.3" font-family="sans-serif" font-size="14.00">Handle post&#45;placeholders</text>
</g>
<!-- post_process&#45;&gt;handle_post_placeholders -->
<!-- report_add_results&#45;&gt;run -->
<g id="edge22" class="edge">
<title>report_add_results:w&#45;&gt;run:s</title>
<path fill="none" stroke="black" d="M504.5,-18C475.05,-18 463.24,-22.71 444,-45 366.83,-134.38 300.24,-432.67 296.65,-560.62"/>
<polygon fill="black" stroke="black" points="293.15,-560.95 296.5,-571 300.15,-561.05 293.15,-560.95"/>
</g>
<!-- report_add_results_desc -->
<g id="node22" class="node">
<title>report_add_results_desc</title>
<text text-anchor="middle" x="882.5" y="-14.3" font-family="sans-serif" font-size="14.00">Update assumptions cells</text>
</g>
<!-- report_add_results&#45;&gt;report_add_results_desc -->
</g>
</svg>
